<?xml version="1.0" encoding="utf-8"?>
<!-- Generator: Adobe Illustrator 18.1.1, SVG Export Plug-In . SVG Version: 6.00 Build 0)  -->
<svg version="1.1" xmlns="http://www.w3.org/2000/svg" xmlns:xlink="http://www.w3.org/1999/xlink" x="0px" y="0px"
	 viewBox="0 0 750 520.5" enable-background="new 0 0 750 520.5" xml:space="preserve">
<g id="BACKGROUND">
	<g>
		<rect fill="#0F1027" width="750" height="500"/>
	</g>
</g>
<g id="OBJECTS">
	<g>
		<defs>
			<rect id="SVGID_1_" width="750" height="500"/>
		</defs>
		<clipPath id="SVGID_2_">
			<use xlink:href="#SVGID_1_"  overflow="visible"/>
		</clipPath>
		<g clip-path="url(#SVGID_2_)">
			<g>
				<path fill="none" stroke="#8F9294" stroke-width="1.0782" stroke-miterlimit="10" d="M92.6-75.2L-45.7,63
					c0.6,4,1.5,7.8,2.5,11.7L104.2-72.7C100.4-73.7,96.5-74.6,92.6-75.2z"/>
				<path fill="none" stroke="#8F9294" stroke-width="1.0782" stroke-miterlimit="10" d="M104.2-72.7L-43.2,74.7
					c1,3.7,2.1,7.2,3.4,10.7L115-69.3C111.5-70.6,107.9-71.7,104.2-72.7z"/>
				<path fill="none" stroke="#8F9294" stroke-width="1.0782" stroke-miterlimit="10" d="M150.7-48.5L-19,121.2
					c2.2,2.6,4.4,5,6.7,7.4L158.1-41.7C155.7-44.1,153.2-46.3,150.7-48.5z"/>
				<path fill="none" stroke="#8F9294" stroke-width="1.0782" stroke-miterlimit="10" d="M142.7-54.6L-25.1,113.2
					c1.9,2.7,4,5.4,6.2,8L150.7-48.5C148.1-50.7,145.5-52.7,142.7-54.6z"/>
				<path fill="none" stroke="#8F9294" stroke-width="1.0782" stroke-miterlimit="10" d="M124.9-65.1L-35.6,95.4
					c1.5,3.2,3.2,6.2,4.9,9.2L134.1-60.2C131.1-62,128.1-63.6,124.9-65.1z"/>
				<path fill="none" stroke="#8F9294" stroke-width="1.0782" stroke-miterlimit="10" d="M134.1-60.2L-30.7,104.6
					c1.7,2.9,3.6,5.8,5.6,8.6L142.7-54.6C139.9-56.6,137.1-58.5,134.1-60.2z"/>
				<path fill="none" stroke="#8F9294" stroke-width="1.0782" stroke-miterlimit="10" d="M115-69.3L-39.8,85.4
					c1.3,3.4,2.7,6.7,4.2,9.9L124.9-65.1C121.7-66.7,118.3-68.1,115-69.3z"/>
				<path fill="none" stroke="#8F9294" stroke-width="1.0782" stroke-miterlimit="10" d="M-39-0.2l68.3-68.3
					C-1.9-56.3-26.8-31.4-39-0.2z"/>
				<path fill="none" stroke="#8F9294" stroke-width="1.0782" stroke-miterlimit="10" d="M29.3-68.5L-39-0.2
					c-2.5,6.4-4.5,13.1-5.9,20.1l94.2-94.2C42.4-73,35.7-71,29.3-68.5z"/>
				<path fill="none" stroke="#8F9294" stroke-width="1.0782" stroke-miterlimit="10" d="M79.8-76.6L-47.1,50.3
					c0.2,4.3,0.7,8.6,1.4,12.8L92.6-75.2C88.4-75.9,84.1-76.3,79.8-76.6z"/>
				<path fill="none" stroke="#8F9294" stroke-width="1.0782" stroke-miterlimit="10" d="M73.2-76.8c-2.5,0-5.1,0.1-7.6,0.3
					L-47,36.1c-0.2,2.5-0.3,5-0.3,7.6c0,2.2,0.1,4.4,0.2,6.6L79.8-76.6C77.6-76.7,75.4-76.8,73.2-76.8z"/>
				<path fill="none" stroke="#8F9294" stroke-width="1.0782" stroke-miterlimit="10" d="M49.4-74.4l-94.2,94.2
					c-1.1,5.3-1.8,10.7-2.1,16.2L65.6-76.5C60.1-76.2,54.6-75.5,49.4-74.4z"/>
				<path fill="none" stroke="#8F9294" stroke-width="1.0782" stroke-miterlimit="10" d="M191.9,23.4L52.9,162.4
					c4.2,0.7,8.4,1.2,12.7,1.5L193.4,36.1C193.1,31.8,192.6,27.6,191.9,23.4z"/>
				<path fill="none" stroke="#8F9294" stroke-width="1.0782" stroke-miterlimit="10" d="M193.6,43.7c0-2.5-0.1-5.1-0.3-7.6
					L65.6,163.8c2.5,0.2,5,0.3,7.6,0.3c2.2,0,4.3-0.1,6.5-0.2L193.4,50.2C193.5,48,193.6,45.8,193.6,43.7z"/>
				<path fill="none" stroke="#8F9294" stroke-width="1.0782" stroke-miterlimit="10" d="M193.4,50.2L79.7,163.9
					c5.5-0.3,10.8-1,16.1-2l95.7-95.7C192.5,61,193.1,55.6,193.4,50.2z"/>
				<path fill="none" stroke="#8F9294" stroke-width="1.0782" stroke-miterlimit="10" d="M191.5,66.3l-95.7,95.7
					c6.8-1.3,13.3-3.1,19.6-5.5L186,85.9C188.3,79.6,190.2,73,191.5,66.3z"/>
				<path fill="none" stroke="#8F9294" stroke-width="1.0782" stroke-miterlimit="10" d="M186,85.9l-70.6,70.6
					C147.9,144.3,173.8,118.4,186,85.9z"/>
				<path fill="none" stroke="#8F9294" stroke-width="1.0782" stroke-miterlimit="10" d="M189.3,11.8l-148,148
					c3.8,1,7.7,1.9,11.6,2.6L191.9,23.4C191.2,19.5,190.4,15.6,189.3,11.8z"/>
				<path fill="none" stroke="#8F9294" stroke-width="1.0782" stroke-miterlimit="10" d="M171.1-26.5l-168,168
					c2.8,2,5.6,3.9,8.5,5.6L176.7-17.9C174.9-20.9,173.1-23.7,171.1-26.5z"/>
				<path fill="none" stroke="#8F9294" stroke-width="1.0782" stroke-miterlimit="10" d="M164.9-34.4L-4.9,135.3
					c2.6,2.2,5.2,4.2,7.9,6.2l168-168C169.1-29.2,167-31.8,164.9-34.4z"/>
				<path fill="none" stroke="#8F9294" stroke-width="1.0782" stroke-miterlimit="10" d="M185.9,1.2L30.7,156.4
					c3.5,1.3,7,2.5,10.7,3.5l148-148C188.3,8.2,187.2,4.6,185.9,1.2z"/>
				<path fill="none" stroke="#8F9294" stroke-width="1.0782" stroke-miterlimit="10" d="M158.1-41.7L-12.2,128.6
					c2.4,2.4,4.8,4.6,7.4,6.8L164.9-34.4C162.7-36.9,160.4-39.4,158.1-41.7z"/>
				<path fill="none" stroke="#8F9294" stroke-width="1.0782" stroke-miterlimit="10" d="M181.6-8.7L20.8,152.1
					c3.2,1.6,6.5,3,9.9,4.2L185.9,1.2C184.6-2.2,183.2-5.5,181.6-8.7z"/>
				<path fill="none" stroke="#8F9294" stroke-width="1.0782" stroke-miterlimit="10" d="M176.7-17.9L11.6,147.2c3,1.8,6,3.4,9.2,5
					L181.6-8.7C180.1-11.9,178.5-14.9,176.7-17.9z"/>
			</g>
			<g>
				<polygon fill="#FDFDFD" points="91.2,130 85.2,124 76.3,132.8 67.5,124 61.4,130 70.3,138.9 61.4,147.7 67.5,153.8 76.3,144.9 
					85.2,153.8 91.2,147.7 82.4,138.9 				"/>
				<polygon fill="#FF2C2C" points="91.2,185.3 85.2,179.2 76.3,188.1 67.5,179.2 61.4,185.3 70.3,194.1 61.4,203 67.5,209 
					76.3,200.2 85.2,209 91.2,203 82.4,194.1 				"/>
				<polygon fill="#FDFDFD" points="91.2,240.5 85.2,234.5 76.3,243.3 67.5,234.5 61.4,240.5 70.3,249.4 61.4,258.2 67.5,264.3 
					76.3,255.4 85.2,264.3 91.2,258.2 82.4,249.4 				"/>
			</g>
			<path fill="#FDFDFD" d="M225.3,383c-78,0-141.3,63.2-141.3,141.3c0,78,63.2,141.3,141.3,141.3c78,0,141.3-63.2,141.3-141.3
				C366.6,446.3,303.3,383,225.3,383z M225.3,637.3c-62.4,0-113-50.6-113-113s50.6-113,113-113c62.4,0,113,50.6,113,113
				S287.8,637.3,225.3,637.3z"/>
			<g>
				<g>
					<rect x="219.4" y="319.5" fill="none" stroke="#8F9294" stroke-width="1.0782" stroke-miterlimit="10" width="4" height="4"/>
					<rect x="249.7" y="319.5" fill="none" stroke="#8F9294" stroke-width="1.0782" stroke-miterlimit="10" width="4" height="4"/>
					<rect x="280" y="319.5" fill="none" stroke="#8F9294" stroke-width="1.0782" stroke-miterlimit="10" width="4" height="4"/>
					<rect x="310.4" y="319.5" fill="none" stroke="#8F9294" stroke-width="1.0782" stroke-miterlimit="10" width="4" height="4"/>
					<rect x="340.7" y="319.5" fill="none" stroke="#8F9294" stroke-width="1.0782" stroke-miterlimit="10" width="4" height="4"/>
					<rect x="371" y="319.5" fill="none" stroke="#8F9294" stroke-width="1.0782" stroke-miterlimit="10" width="4" height="4"/>
				</g>
				<g>
					<rect x="219.4" y="341.7" fill="none" stroke="#8F9294" stroke-width="1.0782" stroke-miterlimit="10" width="4" height="4"/>
					<rect x="249.7" y="341.7" fill="none" stroke="#FF2C2C" stroke-width="1.0782" stroke-miterlimit="10" width="4" height="4"/>
					<rect x="280" y="341.7" fill="none" stroke="#8F9294" stroke-width="1.0782" stroke-miterlimit="10" width="4" height="4"/>
					<rect x="310.4" y="341.7" fill="none" stroke="#8F9294" stroke-width="1.0782" stroke-miterlimit="10" width="4" height="4"/>
					<rect x="340.7" y="341.7" fill="none" stroke="#8F9294" stroke-width="1.0782" stroke-miterlimit="10" width="4" height="4"/>
					<rect x="371" y="341.7" fill="none" stroke="#8F9294" stroke-width="1.0782" stroke-miterlimit="10" width="4" height="4"/>
				</g>
				<g>
					<rect x="219.4" y="363.8" fill="none" stroke="#8F9294" stroke-width="1.0782" stroke-miterlimit="10" width="4" height="4"/>
					<rect x="249.7" y="363.8" fill="none" stroke="#8F9294" stroke-width="1.0782" stroke-miterlimit="10" width="4" height="4"/>
					<rect x="280" y="363.8" fill="none" stroke="#8F9294" stroke-width="1.0782" stroke-miterlimit="10" width="4" height="4"/>
					<rect x="310.4" y="363.8" fill="none" stroke="#FF2C2C" stroke-width="1.0782" stroke-miterlimit="10" width="4" height="4"/>
					<rect x="340.7" y="363.8" fill="none" stroke="#8F9294" stroke-width="1.0782" stroke-miterlimit="10" width="4" height="4"/>
					<rect x="371" y="363.8" fill="none" stroke="#8F9294" stroke-width="1.0782" stroke-miterlimit="10" width="4" height="4"/>
				</g>
				<g>
					<rect x="219.4" y="385.9" fill="none" stroke="#8F9294" stroke-width="1.0782" stroke-miterlimit="10" width="4" height="4"/>
					<rect x="249.7" y="385.9" fill="none" stroke="#8F9294" stroke-width="1.0782" stroke-miterlimit="10" width="4" height="4"/>
					<rect x="280" y="385.9" fill="none" stroke="#8F9294" stroke-width="1.0782" stroke-miterlimit="10" width="4" height="4"/>
					<rect x="310.4" y="385.9" fill="none" stroke="#8F9294" stroke-width="1.0782" stroke-miterlimit="10" width="4" height="4"/>
					<rect x="340.7" y="385.9" fill="none" stroke="#8F9294" stroke-width="1.0782" stroke-miterlimit="10" width="4" height="4"/>
					<rect x="371" y="385.9" fill="none" stroke="#8F9294" stroke-width="1.0782" stroke-miterlimit="10" width="4" height="4"/>
				</g>
				<g>
					<rect x="219.4" y="408" fill="none" stroke="#8F9294" stroke-width="1.0782" stroke-miterlimit="10" width="4" height="4"/>
					<rect x="249.7" y="408" fill="#0F1027" width="4" height="4"/>
					<rect x="280" y="408" fill="#0F1027" width="4" height="4"/>
					<rect x="310.4" y="408" fill="none" stroke="#8F9294" stroke-width="1.0782" stroke-miterlimit="10" width="4" height="4"/>
					<rect x="340.7" y="408" fill="none" stroke="#FF2C2C" stroke-width="1.0782" stroke-miterlimit="10" width="4" height="4"/>
					<rect x="371" y="408" fill="none" stroke="#8F9294" stroke-width="1.0782" stroke-miterlimit="10" width="4" height="4"/>
				</g>
				<g>
					<rect x="219.4" y="430.1" fill="none" stroke="#8F9294" stroke-width="1.0782" stroke-miterlimit="10" width="4" height="4"/>
					<rect x="249.7" y="430.1" fill="none" stroke="#8F9294" stroke-width="1.0782" stroke-miterlimit="10" width="4" height="4"/>
					<rect x="280" y="430.1" fill="none" stroke="#8F9294" stroke-width="1.0782" stroke-miterlimit="10" width="4" height="4"/>
					<rect x="310.4" y="430.1" fill="#0F1027" width="4" height="4"/>
					<rect x="340.7" y="430.1" fill="none" stroke="#8F9294" stroke-width="1.0782" stroke-miterlimit="10" width="4" height="4"/>
					<rect x="371" y="430.1" fill="none" stroke="#8F9294" stroke-width="1.0782" stroke-miterlimit="10" width="4" height="4"/>
				</g>
				<g>
					<rect x="219.4" y="452.2" fill="none" stroke="#8F9294" stroke-width="1.0782" stroke-miterlimit="10" width="4" height="4"/>
					<rect x="249.7" y="452.2" fill="none" stroke="#8F9294" stroke-width="1.0782" stroke-miterlimit="10" width="4" height="4"/>
					<rect x="280" y="452.2" fill="none" stroke="#8F9294" stroke-width="1.0782" stroke-miterlimit="10" width="4" height="4"/>
					<rect x="310.4" y="452.2" fill="none" stroke="#8F9294" stroke-width="1.0782" stroke-miterlimit="10" width="4" height="4"/>
					<rect x="340.7" y="452.2" fill="#0F1027" width="4" height="4"/>
					<rect x="371" y="452.2" fill="none" stroke="#8F9294" stroke-width="1.0782" stroke-miterlimit="10" width="4" height="4"/>
				</g>
			</g>
			<g>
				<path fill="none" stroke="#8F9294" stroke-width="2" stroke-miterlimit="10" d="M106.9,321.5l-212.1,212.1
					c-7.2,7.2-19,7.2-26.2,0l0,0c-7.2-7.2-7.2-19,0-26.2L80.7,295.3c7.2-7.2,19-7.2,26.2,0l0,0C114.1,302.5,114.1,314.2,106.9,321.5
					z"/>
				<path fill="none" stroke="#8F9294" stroke-width="2" stroke-miterlimit="10" d="M94,412.3L-67.9,574.2c-5.5,5.5-14.5,5.5-20,0
					l0,0c-5.5-5.5-5.5-14.5,0-20L74,392.3c5.5-5.5,14.5-5.5,20,0h0C99.5,397.8,99.5,406.8,94,412.3z"/>
			</g>
			<g>
				<polygon fill="#FDFDFD" points="241.5,60.4 224.3,50.4 224.3,70.3 				"/>
				<polygon fill="#FDFDFD" points="270.2,60.4 253,50.4 253,70.3 				"/>
				<polygon fill="#FF2C2C" points="298.9,60.4 281.8,50.4 281.8,70.3 				"/>
			</g>
			<g>
				<polygon fill="#FDFDFD" points="697.2,390.1 687.3,407.2 707.1,407.2 				"/>
				<polygon fill="#FDFDFD" points="697.2,361.4 687.3,378.5 707.1,378.5 				"/>
				<polygon fill="#FDFDFD" points="697.2,332.6 687.3,349.8 707.1,349.8 				"/>
				<polygon fill="#FF2C2C" points="697.2,245.9 691.5,255.9 703,255.9 				"/>
			</g>
			<g>
				<g>
					<line fill="none" stroke="#D8D9DA" stroke-width="0.7797" stroke-miterlimit="10" x1="623.6" y1="447.4" x2="610" y2="461"/>
					<line fill="none" stroke="#D8D9DA" stroke-width="0.7797" stroke-miterlimit="10" x1="630.2" y1="447.4" x2="616.6" y2="461"/>
					<line fill="none" stroke="#D8D9DA" stroke-width="0.7797" stroke-miterlimit="10" x1="636.8" y1="447.4" x2="623.2" y2="461"/>
					<line fill="none" stroke="#D8D9DA" stroke-width="0.7797" stroke-miterlimit="10" x1="643.4" y1="447.4" x2="629.8" y2="461"/>
					<line fill="none" stroke="#D8D9DA" stroke-width="0.7797" stroke-miterlimit="10" x1="650" y1="447.4" x2="636.5" y2="461"/>
					<line fill="none" stroke="#D8D9DA" stroke-width="0.7797" stroke-miterlimit="10" x1="656.7" y1="447.4" x2="643.1" y2="461"/>
					<line fill="none" stroke="#D8D9DA" stroke-width="0.7797" stroke-miterlimit="10" x1="663.3" y1="447.4" x2="649.7" y2="461"/>
					<line fill="none" stroke="#D8D9DA" stroke-width="0.7797" stroke-miterlimit="10" x1="669.9" y1="447.4" x2="656.3" y2="461"/>
					<line fill="none" stroke="#D8D9DA" stroke-width="0.7797" stroke-miterlimit="10" x1="676.5" y1="447.4" x2="662.9" y2="461"/>
					<line fill="none" stroke="#D8D9DA" stroke-width="0.7797" stroke-miterlimit="10" x1="683.1" y1="447.4" x2="669.5" y2="461"/>
					<line fill="none" stroke="#D8D9DA" stroke-width="0.7797" stroke-miterlimit="10" x1="689.7" y1="447.4" x2="676.2" y2="461"/>
					<line fill="none" stroke="#D8D9DA" stroke-width="0.7797" stroke-miterlimit="10" x1="696.4" y1="447.4" x2="682.8" y2="461"/>
					<line fill="none" stroke="#D8D9DA" stroke-width="0.7797" stroke-miterlimit="10" x1="703" y1="447.4" x2="689.4" y2="461"/>
				</g>
			</g>
			<rect x="610" y="434.2" fill="#FF2C2C" width="59.9" height="5"/>
			<rect x="678" y="434.2" fill="#FDFDFD" width="25" height="5"/>
			<g>
				<g>
					<circle fill="#606060" stroke="#D8D9DA" stroke-miterlimit="10" cx="668.7" cy="38.5" r="2.1"/>
					<circle fill="none" stroke="#D8D9DA" stroke-width="0.7797" stroke-miterlimit="10" cx="684" cy="38.5" r="2.1"/>
					<circle fill="none" stroke="#D8D9DA" stroke-width="0.7797" stroke-miterlimit="10" cx="699.3" cy="38.5" r="2.1"/>
				</g>
				<g>
					<circle fill="none" stroke="#D8D9DA" stroke-width="0.7797" stroke-miterlimit="10" cx="653.3" cy="51.7" r="2.1"/>
					<circle fill="none" stroke="#D8D9DA" stroke-width="0.7797" stroke-miterlimit="10" cx="668.7" cy="51.7" r="2.1"/>
					<circle fill="none" stroke="#D8D9DA" stroke-width="0.7797" stroke-miterlimit="10" cx="684" cy="51.7" r="2.1"/>
					<circle fill="none" stroke="#FF2C2C" stroke-miterlimit="10" cx="684" cy="64" r="2.1"/>
				</g>
			</g>
			<g>
				<g>
					<g>
						
							<line fill="none" stroke="#8F9294" stroke-width="0.3881" stroke-miterlimit="10" x1="595.2" y1="87.6" x2="595.2" y2="98.6"/>
						
							<line fill="none" stroke="#8F9294" stroke-width="0.3881" stroke-miterlimit="10" x1="589.7" y1="93.1" x2="600.6" y2="93.1"/>
					</g>
					<g>
						<line fill="none" stroke="#8F9294" stroke-width="0.3881" stroke-miterlimit="10" x1="625" y1="87.6" x2="625" y2="98.6"/>
						
							<line fill="none" stroke="#8F9294" stroke-width="0.3881" stroke-miterlimit="10" x1="619.5" y1="93.1" x2="630.5" y2="93.1"/>
					</g>
					<g>
						
							<line fill="none" stroke="#8F9294" stroke-width="0.3881" stroke-miterlimit="10" x1="654.9" y1="87.6" x2="654.9" y2="98.6"/>
						
							<line fill="none" stroke="#8F9294" stroke-width="0.3881" stroke-miterlimit="10" x1="649.4" y1="93.1" x2="660.4" y2="93.1"/>
					</g>
					<g>
						
							<line fill="none" stroke="#8F9294" stroke-width="0.3881" stroke-miterlimit="10" x1="684.7" y1="87.6" x2="684.7" y2="98.6"/>
						
							<line fill="none" stroke="#8F9294" stroke-width="0.3881" stroke-miterlimit="10" x1="679.3" y1="93.1" x2="690.2" y2="93.1"/>
					</g>
				</g>
				<g>
					<g>
						
							<line fill="none" stroke="#8F9294" stroke-width="0.3881" stroke-miterlimit="10" x1="595.2" y1="110.4" x2="595.2" y2="121.3"/>
						
							<line fill="none" stroke="#8F9294" stroke-width="0.3881" stroke-miterlimit="10" x1="589.7" y1="115.8" x2="600.6" y2="115.8"/>
					</g>
					<g>
						<line fill="none" stroke="#8F9294" stroke-width="0.3881" stroke-miterlimit="10" x1="625" y1="110.4" x2="625" y2="121.3"/>
						
							<line fill="none" stroke="#8F9294" stroke-width="0.3881" stroke-miterlimit="10" x1="619.5" y1="115.8" x2="630.5" y2="115.8"/>
					</g>
					<g>
						
							<line fill="none" stroke="#8F9294" stroke-width="0.3881" stroke-miterlimit="10" x1="654.9" y1="110.4" x2="654.9" y2="121.3"/>
						
							<line fill="none" stroke="#8F9294" stroke-width="0.3881" stroke-miterlimit="10" x1="649.4" y1="115.8" x2="660.4" y2="115.8"/>
					</g>
					<g>
						
							<line fill="none" stroke="#8F9294" stroke-width="0.3881" stroke-miterlimit="10" x1="684.7" y1="110.4" x2="684.7" y2="121.3"/>
						
							<line fill="none" stroke="#8F9294" stroke-width="0.3881" stroke-miterlimit="10" x1="679.3" y1="115.8" x2="690.2" y2="115.8"/>
					</g>
				</g>
				<g>
					<g>
						
							<line fill="none" stroke="#8F9294" stroke-width="0.3881" stroke-miterlimit="10" x1="595.2" y1="133.1" x2="595.2" y2="144.1"/>
						
							<line fill="none" stroke="#8F9294" stroke-width="0.3881" stroke-miterlimit="10" x1="589.7" y1="138.6" x2="600.6" y2="138.6"/>
					</g>
					<g>
						<line fill="none" stroke="#8F9294" stroke-width="0.3881" stroke-miterlimit="10" x1="625" y1="133.1" x2="625" y2="144.1"/>
						
							<line fill="none" stroke="#8F9294" stroke-width="0.3881" stroke-miterlimit="10" x1="619.5" y1="138.6" x2="630.5" y2="138.6"/>
					</g>
					<g>
						
							<line fill="none" stroke="#8F9294" stroke-width="0.3881" stroke-miterlimit="10" x1="654.9" y1="133.1" x2="654.9" y2="144.1"/>
						
							<line fill="none" stroke="#8F9294" stroke-width="0.3881" stroke-miterlimit="10" x1="649.4" y1="138.6" x2="660.4" y2="138.6"/>
					</g>
					<g>
						
							<line fill="none" stroke="#8F9294" stroke-width="0.3881" stroke-miterlimit="10" x1="684.7" y1="133.1" x2="684.7" y2="144.1"/>
						
							<line fill="none" stroke="#8F9294" stroke-width="0.3881" stroke-miterlimit="10" x1="679.3" y1="138.6" x2="690.2" y2="138.6"/>
					</g>
				</g>
				<g>
					<g>
						
							<line fill="none" stroke="#8F9294" stroke-width="0.3881" stroke-miterlimit="10" x1="595.2" y1="155.8" x2="595.2" y2="166.8"/>
						
							<line fill="none" stroke="#8F9294" stroke-width="0.3881" stroke-miterlimit="10" x1="589.7" y1="161.3" x2="600.6" y2="161.3"/>
					</g>
					<g>
						<line fill="none" stroke="#8F9294" stroke-width="0.3881" stroke-miterlimit="10" x1="625" y1="155.8" x2="625" y2="166.8"/>
						
							<line fill="none" stroke="#8F9294" stroke-width="0.3881" stroke-miterlimit="10" x1="619.5" y1="161.3" x2="630.5" y2="161.3"/>
					</g>
					<g>
						
							<line fill="none" stroke="#8F9294" stroke-width="0.3881" stroke-miterlimit="10" x1="654.9" y1="155.8" x2="654.9" y2="166.8"/>
						
							<line fill="none" stroke="#8F9294" stroke-width="0.3881" stroke-miterlimit="10" x1="649.4" y1="161.3" x2="660.4" y2="161.3"/>
					</g>
					<g>
						
							<line fill="none" stroke="#8F9294" stroke-width="0.3881" stroke-miterlimit="10" x1="684.7" y1="155.8" x2="684.7" y2="166.8"/>
						
							<line fill="none" stroke="#8F9294" stroke-width="0.3881" stroke-miterlimit="10" x1="679.3" y1="161.3" x2="690.2" y2="161.3"/>
					</g>
				</g>
			</g>
			<g>
				<path fill="none" stroke="#8F9294" stroke-linecap="round" stroke-linejoin="round" stroke-miterlimit="10" d="M600.6,220.1
					c-51.1-19-90.4-62.1-104.1-115.5"/>
				<path fill="none" stroke="#575758" stroke-linecap="round" stroke-linejoin="round" stroke-miterlimit="10" d="M724.6,217.3
					c-20.2,8.6-42.3,13.3-65.6,13.3c-9.7,0-19.3-0.8-28.5-2.4"/>
				<path fill="none" stroke="#575758" stroke-linecap="round" stroke-linejoin="round" stroke-miterlimit="10" d="M493.4,36.1
					C506.2-43.9,575.5-105,659-105c92.7,0,167.8,75.1,167.8,167.8c0,69.4-42.1,128.9-102.2,154.5"/>
			</g>
			
				<circle fill="none" stroke="#575758" stroke-linecap="round" stroke-linejoin="round" stroke-miterlimit="10" cx="626.1" cy="226.5" r="4.4"/>
			
				<rect x="422.7" y="36.6" fill="none" stroke="#8F9294" stroke-linecap="round" stroke-linejoin="round" stroke-miterlimit="10" width="121.5" height="10.2"/>
			<g>
				<g>
					<g>
						
							<rect x="242.8" y="-13" transform="matrix(0.7071 0.7071 -0.7071 0.7071 64.0539 -176.3683)" fill="#8F9294" width="4.2" height="4.2"/>
						
							<rect x="254.8" y="-1" transform="matrix(0.7071 0.7071 -0.7071 0.7071 75.974 -181.3057)" fill="#8F9294" width="4" height="4"/>
						
							<rect x="266.9" y="11.1" transform="matrix(0.7071 0.7071 -0.7071 0.7071 87.8956 -186.2445)" fill="#8F9294" width="3.8" height="3.8"/>
						
							<rect x="278.9" y="23.1" transform="matrix(0.7071 0.7071 -0.7071 0.7071 99.8159 -191.182)" fill="#8F9294" width="3.6" height="3.6"/>
						
							<rect x="290.9" y="35.1" transform="matrix(0.7071 0.7071 -0.7071 0.7071 111.7364 -196.1196)" fill="#8F9294" width="3.4" height="3.4"/>
						
							<rect x="302.9" y="47.2" transform="matrix(0.7071 0.7071 -0.7071 0.7071 123.6513 -201.0532)" fill="#8F9294" width="3.2" height="3.2"/>
						
							<rect x="315" y="59.2" transform="matrix(0.7071 0.7071 -0.7071 0.7071 135.5711 -205.9905)" fill="#8F9294" width="3" height="3"/>
						
							<rect x="327" y="71.2" transform="matrix(0.7071 0.7071 -0.7071 0.7071 147.4909 -210.9279)" fill="#8F9294" width="2.7" height="2.7"/>
						
							<rect x="339" y="83.2" transform="matrix(0.7071 0.7071 -0.7071 0.7071 159.4107 -215.8652)" fill="#8F9294" width="2.5" height="2.5"/>
						
							<rect x="351" y="95.3" transform="matrix(0.7071 0.7071 -0.7071 0.7071 171.3305 -220.8026)" fill="#8F9294" width="2.3" height="2.3"/>
						
							<rect x="363.1" y="107.3" transform="matrix(0.7071 0.7071 -0.7071 0.7071 183.2503 -225.7399)" fill="#8F9294" width="2.1" height="2.1"/>
						
							<rect x="375.1" y="119.3" transform="matrix(0.7071 0.7071 -0.7071 0.7071 195.1701 -230.6772)" fill="#8F9294" width="1.9" height="1.9"/>
					</g>
				</g>
				<g>
					<g>
						
							<rect x="252.5" y="-22.6" transform="matrix(0.7071 0.7071 -0.7071 0.7071 60.0521 -186.0243)" fill="#8F9294" width="4.2" height="4.2"/>
						
							<rect x="264.5" y="-10.6" transform="matrix(0.7071 0.7071 -0.7071 0.7071 71.9737 -190.9635)" fill="#8F9294" width="4" height="4"/>
						
							<rect x="276.5" y="1.4" transform="matrix(0.7071 0.7071 -0.7071 0.7071 83.8919 -195.8991)" fill="#8F9294" width="3.8" height="3.8"/>
						
							<rect x="288.5" y="13.4" transform="matrix(0.7071 0.7071 -0.7071 0.7071 95.8114 -200.8361)" fill="#8F9294" width="3.6" height="3.6"/>
						
							<rect x="300.6" y="25.5" transform="matrix(0.7071 0.7071 -0.7071 0.7071 107.7315 -205.7737)" fill="#8F9294" width="3.4" height="3.4"/>
						
							<rect x="312.6" y="37.5" transform="matrix(0.7071 0.7071 -0.7071 0.7071 119.651 -210.7108)" fill="#8F9294" width="3.2" height="3.2"/>
						
							<rect x="324.6" y="49.5" transform="matrix(0.7071 0.7071 -0.7071 0.7071 131.5708 -215.6481)" fill="#8F9294" width="3" height="3"/>
						
							<rect x="336.6" y="61.5" transform="matrix(0.7071 0.7071 -0.7071 0.7071 143.4906 -220.5855)" fill="#8F9294" width="2.7" height="2.7"/>
						
							<rect x="348.7" y="73.6" transform="matrix(0.7071 0.7071 -0.7071 0.7071 155.4188 -225.5283)" fill="#8F9294" width="2.5" height="2.5"/>
						
							<rect x="360.7" y="85.6" transform="matrix(0.7071 0.7071 -0.7071 0.7071 167.3302 -230.4602)" fill="#8F9294" width="2.3" height="2.3"/>
						
							<rect x="372.7" y="97.6" transform="matrix(0.7071 0.7071 -0.7071 0.7071 179.2613 -235.4041)" fill="#8F9294" width="2.1" height="2.1"/>
						
							<rect x="384.8" y="109.7" transform="matrix(0.7071 0.7071 -0.7071 0.7071 191.1698 -240.3349)" fill="#8F9294" width="1.9" height="1.9"/>
					</g>
				</g>
				<g>
					<g>
						
							<rect x="262.1" y="-32.3" transform="matrix(0.7071 0.7071 -0.7071 0.7071 56.0544 -195.6851)" fill="#8F9294" width="4.2" height="4.2"/>
						
							<rect x="274.1" y="-20.3" transform="matrix(0.7071 0.7071 -0.7071 0.7071 67.9715 -200.619)" fill="#8F9294" width="4" height="4"/>
						
							<rect x="286.2" y="-8.2" transform="matrix(0.7071 0.7071 -0.7071 0.7071 79.8916 -205.5567)" fill="#8F9294" width="3.8" height="3.8"/>
						
							<rect x="298.2" y="3.8" transform="matrix(0.7071 0.7071 -0.7071 0.7071 91.8136 -210.4962)" fill="#8F9294" width="3.6" height="3.6"/>
						
							<rect x="310.2" y="15.8" transform="matrix(0.7071 0.7071 -0.7071 0.7071 103.7309 -215.431)" fill="#8F9294" width="3.4" height="3.4"/>
						
							<rect x="322.3" y="27.8" transform="matrix(0.7071 0.7071 -0.7071 0.7071 115.6506 -220.3684)" fill="#8F9294" width="3.2" height="3.2"/>
						
							<rect x="334.3" y="39.9" transform="matrix(0.7071 0.7071 -0.7071 0.7071 127.5705 -225.3057)" fill="#8F9294" width="3" height="3"/>
						
							<rect x="346.3" y="51.9" transform="matrix(0.7071 0.7071 -0.7071 0.7071 139.4902 -230.2431)" fill="#8F9294" width="2.7" height="2.7"/>
						
							<rect x="358.3" y="63.9" transform="matrix(0.7071 0.7071 -0.7071 0.7071 151.4101 -235.1804)" fill="#8F9294" width="2.5" height="2.5"/>
						
							<rect x="370.4" y="75.9" transform="matrix(0.7071 0.7071 -0.7071 0.7071 163.3298 -240.1178)" fill="#8F9294" width="2.3" height="2.3"/>
						
							<rect x="382.4" y="88" transform="matrix(0.7071 0.7071 -0.7071 0.7071 175.261 -245.0622)" fill="#8F9294" width="2.1" height="2.1"/>
						
							<rect x="394.4" y="100" transform="matrix(0.7071 0.7071 -0.7071 0.7071 187.1694 -249.9925)" fill="#8F9294" width="1.9" height="1.9"/>
					</g>
				</g>
				<g>
					<g>
						
							<rect x="271.8" y="-42" transform="matrix(0.7071 0.7071 -0.7071 0.7071 52.0486 -205.3356)" fill="#8F9294" width="4.2" height="4.2"/>
						
							<rect x="283.8" y="-29.9" transform="matrix(0.7071 0.7071 -0.7071 0.7071 63.9679 -210.2727)" fill="#8F9294" width="4" height="4"/>
						
							<rect x="295.8" y="-17.9" transform="matrix(0.7071 0.7071 -0.7071 0.7071 75.8872 -215.2099)" fill="#8F9294" width="3.8" height="3.8"/>
						
							<rect x="307.9" y="-5.9" transform="matrix(0.7071 0.7071 -0.7071 0.7071 87.8116 -220.1522)" fill="#8F9294" width="3.6" height="3.6"/>
						
							<rect x="319.9" y="6.1" transform="matrix(0.7071 0.7071 -0.7071 0.7071 99.7315 -225.0896)" fill="#8F9294" width="3.4" height="3.4"/>
						
							<rect x="331.9" y="18.2" transform="matrix(0.7071 0.7071 -0.7071 0.7071 111.6508 -230.0264)" fill="#8F9294" width="3.2" height="3.2"/>
						
							<rect x="343.9" y="30.2" transform="matrix(0.7071 0.7071 -0.7071 0.7071 123.5702 -234.9633)" fill="#8F9294" width="3" height="3"/>
						
							<rect x="356" y="42.2" transform="matrix(0.7071 0.7071 -0.7071 0.7071 135.4899 -239.9007)" fill="#8F9294" width="2.7" height="2.7"/>
						
							<rect x="368" y="54.3" transform="matrix(0.7071 0.7071 -0.7071 0.7071 147.4098 -244.838)" fill="#8F9294" width="2.5" height="2.5"/>
						
							<rect x="380" y="66.3" transform="matrix(0.7071 0.7071 -0.7071 0.7071 159.3304 -249.776)" fill="#8F9294" width="2.3" height="2.3"/>
						
							<rect x="392" y="78.3" transform="matrix(0.7071 0.7071 -0.7071 0.7071 171.2381 -254.7052)" fill="#8F9294" width="2.1" height="2.1"/>
						
							<rect x="404.1" y="90.3" transform="matrix(0.7071 0.7071 -0.7071 0.7071 183.1678 -259.6493)" fill="#8F9294" width="1.9" height="1.9"/>
					</g>
				</g>
				<g>
					<g>
						
							<rect x="281.4" y="-51.6" transform="matrix(0.7071 0.7071 -0.7071 0.7071 48.0482 -214.993)" fill="#8F9294" width="4.2" height="4.2"/>
						
							<rect x="293.5" y="-39.6" transform="matrix(0.7071 0.7071 -0.7071 0.7071 59.9676 -219.9301)" fill="#8F9294" width="4" height="4"/>
						
							<rect x="305.5" y="-27.6" transform="matrix(0.7071 0.7071 -0.7071 0.7071 71.8869 -224.8672)" fill="#8F9294" width="3.8" height="3.8"/>
						
							<rect x="317.5" y="-15.5" transform="matrix(0.7071 0.7071 -0.7071 0.7071 83.8065 -229.8047)" fill="#8F9294" width="3.6" height="3.6"/>
						
							<rect x="329.5" y="-3.5" transform="matrix(0.7071 0.7071 -0.7071 0.7071 95.7287 -234.7447)" fill="#8F9294" width="3.4" height="3.4"/>
						
							<rect x="341.6" y="8.5" transform="matrix(0.7071 0.7071 -0.7071 0.7071 107.6444 -239.6783)" fill="#8F9294" width="3.2" height="3.2"/>
						
							<rect x="353.6" y="20.5" transform="matrix(0.7071 0.7071 -0.7071 0.7071 119.5634 -244.6153)" fill="#8F9294" width="3" height="3"/>
						
							<rect x="365.6" y="32.6" transform="matrix(0.7071 0.7071 -0.7071 0.7071 131.4896 -249.5583)" fill="#8F9294" width="2.7" height="2.7"/>
						
							<rect x="377.6" y="44.6" transform="matrix(0.7071 0.7071 -0.7071 0.7071 143.401 -254.489)" fill="#8F9294" width="2.5" height="2.5"/>
						
							<rect x="389.7" y="56.6" transform="matrix(0.7071 0.7071 -0.7071 0.7071 155.3292 -259.433)" fill="#8F9294" width="2.3" height="2.3"/>
						
							<rect x="401.7" y="68.7" transform="matrix(0.7071 0.7071 -0.7071 0.7071 167.2377 -264.3623)" fill="#8F9294" width="2.1" height="2.1"/>
						
							<rect x="413.7" y="80.7" transform="matrix(0.7071 0.7071 -0.7071 0.7071 179.1688 -269.3076)" fill="#8F9294" width="1.9" height="1.9"/>
					</g>
				</g>
				<g>
					<g>
						
							<rect x="291.1" y="-61.3" transform="matrix(0.7071 0.7071 -0.7071 0.7071 44.0479 -224.6503)" fill="#8F9294" width="4.2" height="4.2"/>
						
							<rect x="303.1" y="-49.2" transform="matrix(0.7071 0.7071 -0.7071 0.7071 55.9673 -229.5875)" fill="#8F9294" width="4" height="4"/>
						
							<rect x="315.1" y="-37.2" transform="matrix(0.7071 0.7071 -0.7071 0.7071 67.8866 -234.5246)" fill="#8F9294" width="3.8" height="3.8"/>
						
							<rect x="327.2" y="-25.2" transform="matrix(0.7071 0.7071 -0.7071 0.7071 79.8059 -239.4616)" fill="#8F9294" width="3.6" height="3.6"/>
						
							<rect x="339.2" y="-13.2" transform="matrix(0.7071 0.7071 -0.7071 0.7071 91.7275 -244.4013)" fill="#8F9294" width="3.4" height="3.4"/>
						
							<rect x="351.2" y="-1.1" transform="matrix(0.7071 0.7071 -0.7071 0.7071 103.6439 -249.3354)" fill="#8F9294" width="3.2" height="3.2"/>
						
							<rect x="363.3" y="10.9" transform="matrix(0.7071 0.7071 -0.7071 0.7071 115.5695 -254.2785)" fill="#8F9294" width="3" height="3"/>
						
							<rect x="375.3" y="22.9" transform="matrix(0.7071 0.7071 -0.7071 0.7071 127.482 -259.2094)" fill="#8F9294" width="2.7" height="2.7"/>
						
							<rect x="387.3" y="34.9" transform="matrix(0.7071 0.7071 -0.7071 0.7071 139.4091 -264.1532)" fill="#8F9294" width="2.5" height="2.5"/>
						
							<rect x="399.3" y="47" transform="matrix(0.7071 0.7071 -0.7071 0.7071 151.3289 -269.0906)" fill="#8F9294" width="2.3" height="2.3"/>
						
							<rect x="411.4" y="59" transform="matrix(0.7071 0.7071 -0.7071 0.7071 163.2487 -274.0279)" fill="#8F9294" width="2.1" height="2.1"/>
						
							<rect x="423.4" y="71" transform="matrix(0.7071 0.7071 -0.7071 0.7071 175.1685 -278.9653)" fill="#8F9294" width="1.9" height="1.9"/>
					</g>
				</g>
				<g>
					<g>
						
							<rect x="300.7" y="-70.9" transform="matrix(0.7071 0.7071 -0.7071 0.7071 40.0534 -234.3168)" fill="#8F9294" width="4.2" height="4.2"/>
						
							<rect x="312.8" y="-58.9" transform="matrix(0.7071 0.7071 -0.7071 0.7071 51.9734 -239.254)" fill="#8F9294" width="4" height="4"/>
						
							<rect x="324.8" y="-46.9" transform="matrix(0.7071 0.7071 -0.7071 0.7071 63.8937 -244.1916)" fill="#8F9294" width="3.8" height="3.8"/>
						
							<rect x="336.8" y="-34.9" transform="matrix(0.7071 0.7071 -0.7071 0.7071 75.814 -249.1293)" fill="#8F9294" width="3.6" height="3.6"/>
						
							<rect x="348.9" y="-22.8" transform="matrix(0.7071 0.7071 -0.7071 0.7071 87.7349 -254.0674)" fill="#8F9294" width="3.4" height="3.4"/>
						
							<rect x="360.9" y="-10.8" transform="matrix(0.7071 0.7071 -0.7071 0.7071 99.6528 -259.0023)" fill="#8F9294" width="3.2" height="3.2"/>
						
							<rect x="372.9" y="1.2" transform="matrix(0.7071 0.7071 -0.7071 0.7071 111.5698 -263.9368)" fill="#8F9294" width="3" height="3"/>
						
							<rect x="384.9" y="13.3" transform="matrix(0.7071 0.7071 -0.7071 0.7071 123.489 -268.8735)" fill="#8F9294" width="2.7" height="2.7"/>
						
							<rect x="397" y="25.3" transform="matrix(0.7071 0.7071 -0.7071 0.7071 135.4097 -273.8116)" fill="#8F9294" width="2.5" height="2.5"/>
						
							<rect x="409" y="37.3" transform="matrix(0.7071 0.7071 -0.7071 0.7071 147.3286 -278.7482)" fill="#8F9294" width="2.3" height="2.3"/>
						
							<rect x="421" y="49.3" transform="matrix(0.7071 0.7071 -0.7071 0.7071 159.2484 -283.6855)" fill="#8F9294" width="2.1" height="2.1"/>
						
							<rect x="433" y="61.4" transform="matrix(0.7071 0.7071 -0.7071 0.7071 171.1682 -288.6228)" fill="#8F9294" width="1.9" height="1.9"/>
					</g>
				</g>
				<g>
					<g>
						
							<rect x="310.4" y="-80.6" transform="matrix(0.7071 0.7071 -0.7071 0.7071 36.0528 -243.9742)" fill="#8F9294" width="4.2" height="4.2"/>
						
							<rect x="322.4" y="-68.6" transform="matrix(0.7071 0.7071 -0.7071 0.7071 47.9699 -248.907)" fill="#8F9294" width="4" height="4"/>
						
							<rect x="334.5" y="-56.5" transform="matrix(0.7071 0.7071 -0.7071 0.7071 59.8897 -253.8444)" fill="#8F9294" width="3.8" height="3.8"/>
						
							<rect x="346.5" y="-44.5" transform="matrix(0.7071 0.7071 -0.7071 0.7071 71.8095 -258.7817)" fill="#8F9294" width="3.6" height="3.6"/>
						
							<rect x="358.5" y="-32.5" transform="matrix(0.7071 0.7071 -0.7071 0.7071 83.7293 -263.7191)" fill="#8F9294" width="3.4" height="3.4"/>
						
							<rect x="370.5" y="-20.5" transform="matrix(0.7071 0.7071 -0.7071 0.7071 95.6491 -268.6564)" fill="#8F9294" width="3.2" height="3.2"/>
						
							<rect x="382.6" y="-8.4" transform="matrix(0.7071 0.7071 -0.7071 0.7071 107.5702 -273.595)" fill="#8F9294" width="3" height="3"/>
						
							<rect x="394.6" y="3.6" transform="matrix(0.7071 0.7071 -0.7071 0.7071 119.4939 -278.5361)" fill="#8F9294" width="2.7" height="2.7"/>
						
							<rect x="406.6" y="15.6" transform="matrix(0.7071 0.7071 -0.7071 0.7071 131.4085 -283.4684)" fill="#8F9294" width="2.5" height="2.5"/>
						
							<rect x="418.7" y="27.7" transform="matrix(0.7071 0.7071 -0.7071 0.7071 143.3283 -288.4058)" fill="#8F9294" width="2.3" height="2.3"/>
						
							<rect x="430.7" y="39.7" transform="matrix(0.7071 0.7071 -0.7071 0.7071 155.2481 -293.3431)" fill="#8F9294" width="2.1" height="2.1"/>
						
							<rect x="442.7" y="51.7" transform="matrix(0.7071 0.7071 -0.7071 0.7071 167.1679 -298.2804)" fill="#8F9294" width="1.9" height="1.9"/>
					</g>
				</g>
				<g>
					<g>
						
							<rect x="320.1" y="-90.3" transform="matrix(0.7071 0.7071 -0.7071 0.7071 32.0523 -253.6316)" fill="#8F9294" width="4.2" height="4.2"/>
						
							<rect x="332.1" y="-78.2" transform="matrix(0.7071 0.7071 -0.7071 0.7071 43.9696 -258.5645)" fill="#8F9294" width="4" height="4"/>
						
							<rect x="344.1" y="-66.2" transform="matrix(0.7071 0.7071 -0.7071 0.7071 55.8931 -263.5073)" fill="#8F9294" width="3.8" height="3.8"/>
						
							<rect x="356.1" y="-54.2" transform="matrix(0.7071 0.7071 -0.7071 0.7071 67.8092 -268.4392)" fill="#8F9294" width="3.6" height="3.6"/>
						
							<rect x="368.2" y="-42.1" transform="matrix(0.7071 0.7071 -0.7071 0.7071 79.729 -273.3766)" fill="#8F9294" width="3.4" height="3.4"/>
						
							<rect x="380.2" y="-30.1" transform="matrix(0.7071 0.7071 -0.7071 0.7071 91.6493 -278.3146)" fill="#8F9294" width="3.2" height="3.2"/>
						
							<rect x="392.2" y="-18.1" transform="matrix(0.7071 0.7071 -0.7071 0.7071 103.5686 -283.2513)" fill="#8F9294" width="3" height="3"/>
						
							<rect x="404.3" y="-6.1" transform="matrix(0.7071 0.7071 -0.7071 0.7071 115.4935 -288.1939)" fill="#8F9294" width="2.7" height="2.7"/>
						
							<rect x="416.3" y="6" transform="matrix(0.7071 0.7071 -0.7071 0.7071 127.4099 -293.1276)" fill="#8F9294" width="2.5" height="2.5"/>
						
							<rect x="428.3" y="18" transform="matrix(0.7071 0.7071 -0.7071 0.7071 139.329 -298.0643)" fill="#8F9294" width="2.3" height="2.3"/>
						
							<rect x="440.3" y="30" transform="matrix(0.7071 0.7071 -0.7071 0.7071 151.2478 -303.0007)" fill="#8F9294" width="2.1" height="2.1"/>
						
							<rect x="452.4" y="42.1" transform="matrix(0.7071 0.7071 -0.7071 0.7071 163.1676 -307.938)" fill="#8F9294" width="1.9" height="1.9"/>
					</g>
				</g>
				<g>
					<g>
						
							<rect x="329.7" y="-99.9" transform="matrix(0.7071 0.7071 -0.7071 0.7071 28.0467 -263.2798)" fill="#8F9294" width="4.2" height="4.2"/>
						
							<rect x="341.7" y="-87.9" transform="matrix(0.7071 0.7071 -0.7071 0.7071 39.9661 -268.2169)" fill="#8F9294" width="4" height="4"/>
						
							<rect x="353.8" y="-75.9" transform="matrix(0.7071 0.7071 -0.7071 0.7071 51.8854 -273.1539)" fill="#8F9294" width="3.8" height="3.8"/>
						
							<rect x="365.8" y="-63.8" transform="matrix(0.7071 0.7071 -0.7071 0.7071 63.805 -278.0915)" fill="#8F9294" width="3.6" height="3.6"/>
						
							<rect x="377.8" y="-51.8" transform="matrix(0.7071 0.7071 -0.7071 0.7071 75.7287 -283.0342)" fill="#8F9294" width="3.4" height="3.4"/>
						
							<rect x="389.9" y="-39.8" transform="matrix(0.7071 0.7071 -0.7071 0.7071 87.6429 -287.9648)" fill="#8F9294" width="3.2" height="3.2"/>
						
							<rect x="401.9" y="-27.7" transform="matrix(0.7071 0.7071 -0.7071 0.7071 99.5683 -292.9089)" fill="#8F9294" width="3" height="3"/>
						
							<rect x="413.9" y="-15.7" transform="matrix(0.7071 0.7071 -0.7071 0.7071 111.4881 -297.8463)" fill="#8F9294" width="2.7" height="2.7"/>
						
							<rect x="425.9" y="-3.7" transform="matrix(0.7071 0.7071 -0.7071 0.7071 123.4071 -302.7828)" fill="#8F9294" width="2.5" height="2.5"/>
						
							<rect x="438" y="8.3" transform="matrix(0.7071 0.7071 -0.7071 0.7071 135.3286 -307.7219)" fill="#8F9294" width="2.3" height="2.3"/>
						
							<rect x="450" y="20.4" transform="matrix(0.7071 0.7071 -0.7071 0.7071 147.2475 -312.6583)" fill="#8F9294" width="2.1" height="2.1"/>
						
							<rect x="462" y="32.4" transform="matrix(0.7071 0.7071 -0.7071 0.7071 159.1806 -317.6071)" fill="#8F9294" width="1.9" height="1.9"/>
					</g>
				</g>
				<g>
					<g>
						
							<rect x="339.4" y="-109.6" transform="matrix(0.7071 0.7071 -0.7071 0.7071 24.0464 -272.9372)" fill="#8F9294" width="4.2" height="4.2"/>
						
							<rect x="351.4" y="-97.5" transform="matrix(0.7071 0.7071 -0.7071 0.7071 35.9658 -277.8743)" fill="#8F9294" width="4" height="4"/>
						
							<rect x="363.4" y="-85.5" transform="matrix(0.7071 0.7071 -0.7071 0.7071 47.8851 -282.8113)" fill="#8F9294" width="3.8" height="3.8"/>
						
							<rect x="375.5" y="-73.5" transform="matrix(0.7071 0.7071 -0.7071 0.7071 59.8043 -287.7483)" fill="#8F9294" width="3.6" height="3.6"/>
						
							<rect x="387.5" y="-61.5" transform="matrix(0.7071 0.7071 -0.7071 0.7071 71.7235 -292.6852)" fill="#8F9294" width="3.4" height="3.4"/>
						
							<rect x="399.5" y="-49.4" transform="matrix(0.7071 0.7071 -0.7071 0.7071 83.6426 -297.6221)" fill="#8F9294" width="3.2" height="3.2"/>
						
							<rect x="411.5" y="-37.4" transform="matrix(0.7071 0.7071 -0.7071 0.7071 95.5616 -302.5589)" fill="#8F9294" width="3" height="3"/>
						
							<rect x="423.6" y="-25.4" transform="matrix(0.7071 0.7071 -0.7071 0.7071 107.4804 -307.4957)" fill="#8F9294" width="2.7" height="2.7"/>
						
							<rect x="435.6" y="-13.3" transform="matrix(0.7071 0.7071 -0.7071 0.7071 119.3991 -312.4323)" fill="#8F9294" width="2.5" height="2.5"/>
						
							<rect x="447.6" y="-1.3" transform="matrix(0.7071 0.7071 -0.7071 0.7071 131.3275 -317.3787)" fill="#8F9294" width="2.3" height="2.3"/>
						
							<rect x="459.7" y="10.7" transform="matrix(0.7071 0.7071 -0.7071 0.7071 143.2358 -322.3051)" fill="#8F9294" width="2.1" height="2.1"/>
						
							<rect x="471.7" y="22.7" transform="matrix(0.7071 0.7071 -0.7071 0.7071 155.167 -327.2533)" fill="#8F9294" width="1.9" height="1.9"/>
					</g>
				</g>
				<g>
					<g>
						
							<rect x="349" y="-119.2" transform="matrix(0.7071 0.7071 -0.7071 0.7071 20.0433 -282.5891)" fill="#8F9294" width="4.2" height="4.2"/>
						
							<rect x="361.1" y="-107.2" transform="matrix(0.7071 0.7071 -0.7071 0.7071 31.9654 -287.5316)" fill="#8F9294" width="4" height="4"/>
						
							<rect x="373.1" y="-95.2" transform="matrix(0.7071 0.7071 -0.7071 0.7071 43.8847 -292.4686)" fill="#8F9294" width="3.8" height="3.8"/>
						
							<rect x="385.1" y="-83.1" transform="matrix(0.7071 0.7071 -0.7071 0.7071 55.804 -297.4056)" fill="#8F9294" width="3.6" height="3.6"/>
						
							<rect x="397.1" y="-71.1" transform="matrix(0.7071 0.7071 -0.7071 0.7071 67.7286 -302.3501)" fill="#8F9294" width="3.4" height="3.4"/>
						
							<rect x="409.2" y="-59.1" transform="matrix(0.7071 0.7071 -0.7071 0.7071 79.6423 -307.2794)" fill="#8F9294" width="3.2" height="3.2"/>
						
							<rect x="421.2" y="-47.1" transform="matrix(0.7071 0.7071 -0.7071 0.7071 91.5677 -312.2241)" fill="#8F9294" width="3" height="3"/>
						
							<rect x="433.2" y="-35" transform="matrix(0.7071 0.7071 -0.7071 0.7071 103.4801 -317.1529)" fill="#8F9294" width="2.7" height="2.7"/>
						
							<rect x="445.3" y="-23" transform="matrix(0.7071 0.7071 -0.7071 0.7071 115.4082 -322.0999)" fill="#8F9294" width="2.5" height="2.5"/>
						
							<rect x="457.3" y="-11" transform="matrix(0.7071 0.7071 -0.7071 0.7071 127.3173 -327.026)" fill="#8F9294" width="2.3" height="2.3"/>
						
							<rect x="469.3" y="1.1" transform="matrix(0.7071 0.7071 -0.7071 0.7071 139.2412 -331.9679)" fill="#8F9294" width="2.1" height="2.1"/>
						
							<rect x="481.3" y="13.1" transform="matrix(0.7071 0.7071 -0.7071 0.7071 151.1534 -336.8983)" fill="#8F9294" width="1.9" height="1.9"/>
					</g>
				</g>
			</g>
			<g>
				<g>
					<g>
						
							<rect x="641.9" y="507.3" transform="matrix(-0.7071 -0.7071 0.7071 -0.7071 739.2281 1324.9675)" fill="#8F9294" width="4.2" height="4.2"/>
						
							<rect x="630.1" y="495.4" transform="matrix(-0.7071 -0.7071 0.7071 -0.7071 727.3219 1296.189)" fill="#8F9294" width="4" height="4"/>
						
							<rect x="618.3" y="483.6" transform="matrix(-0.7071 -0.7071 0.7071 -0.7071 715.402 1267.412)" fill="#8F9294" width="3.8" height="3.8"/>
						
							<rect x="606.5" y="471.8" transform="matrix(-0.7071 -0.7071 0.7071 -0.7071 703.4971 1238.6332)" fill="#8F9294" width="3.6" height="3.6"/>
						
							<rect x="594.7" y="460" transform="matrix(-0.7071 -0.7071 0.7071 -0.7071 691.5601 1209.8584)" fill="#8F9294" width="3.4" height="3.4"/>
						
							<rect x="582.8" y="448.2" transform="matrix(-0.7071 -0.7071 0.7071 -0.7071 679.659 1181.0791)" fill="#8F9294" width="3.2" height="3.2"/>
						
							<rect x="571" y="436.4" transform="matrix(-0.7071 -0.7071 0.7071 -0.7071 667.7228 1152.3042)" fill="#8F9294" width="3" height="3"/>
						
							<rect x="559.2" y="424.6" transform="matrix(-0.7071 -0.7071 0.7071 -0.7071 655.8209 1123.5249)" fill="#8F9294" width="2.7" height="2.7"/>
						
							<rect x="547.4" y="412.8" transform="matrix(-0.7071 -0.7071 0.7071 -0.7071 643.8832 1094.7504)" fill="#8F9294" width="2.5" height="2.5"/>
						
							<rect x="535.6" y="401" transform="matrix(-0.7071 -0.7071 0.7071 -0.7071 631.981 1065.9709)" fill="#8F9294" width="2.3" height="2.3"/>
						
							<rect x="523.8" y="389.1" transform="matrix(-0.7071 -0.7071 0.7071 -0.7071 620.0436 1037.1965)" fill="#8F9294" width="2.1" height="2.1"/>
						
							<rect x="512" y="377.3" transform="matrix(-0.7071 -0.7071 0.7071 -0.7071 608.1476 1008.416)" fill="#8F9294" width="1.9" height="1.9"/>
					</g>
				</g>
				<g>
					<g>
						
							<rect x="632.2" y="516.9" transform="matrix(-0.7071 -0.7071 0.7071 -0.7071 715.9126 1334.6249)" fill="#8F9294" width="4.2" height="4.2"/>
						
							<rect x="620.4" y="505.1" transform="matrix(-0.7071 -0.7071 0.7071 -0.7071 704.0064 1305.8466)" fill="#8F9294" width="4" height="4"/>
						
							<rect x="608.6" y="493.3" transform="matrix(-0.7071 -0.7071 0.7071 -0.7071 692.0743 1277.0709)" fill="#8F9294" width="3.8" height="3.8"/>
						
							<rect x="596.8" y="481.5" transform="matrix(-0.7071 -0.7071 0.7071 -0.7071 680.1668 1248.2927)" fill="#8F9294" width="3.6" height="3.6"/>
						
							<rect x="585" y="469.7" transform="matrix(-0.7071 -0.7071 0.7071 -0.7071 668.2469 1219.5157)" fill="#8F9294" width="3.4" height="3.4"/>
						
							<rect x="573.2" y="457.9" transform="matrix(-0.7071 -0.7071 0.7071 -0.7071 656.327 1190.7388)" fill="#8F9294" width="3.2" height="3.2"/>
						
							<rect x="561.4" y="446" transform="matrix(-0.7071 -0.7071 0.7071 -0.7071 644.4095 1161.9615)" fill="#8F9294" width="3" height="3"/>
						
							<rect x="549.6" y="434.2" transform="matrix(-0.7071 -0.7071 0.7071 -0.7071 632.485 1133.1852)" fill="#8F9294" width="2.7" height="2.7"/>
						
							<rect x="537.8" y="422.4" transform="matrix(-0.7071 -0.7071 0.7071 -0.7071 620.5676 1104.408)" fill="#8F9294" width="2.5" height="2.5"/>
						
							<rect x="525.9" y="410.6" transform="matrix(-0.7071 -0.7071 0.7071 -0.7071 608.6478 1075.631)" fill="#8F9294" width="2.3" height="2.3"/>
						
							<rect x="514.1" y="398.8" transform="matrix(-0.7071 -0.7071 0.7071 -0.7071 596.7308 1046.8536)" fill="#8F9294" width="2.1" height="2.1"/>
						
							<rect x="502.3" y="387" transform="matrix(-0.7071 -0.7071 0.7071 -0.7071 584.7844 1018.0801)" fill="#8F9294" width="1.9" height="1.9"/>
					</g>
				</g>
				<g>
					<g>
						
							<rect x="622.6" y="526.6" transform="matrix(-0.7071 -0.7071 0.7071 -0.7071 692.597 1344.2823)" fill="#8F9294" width="4.2" height="4.2"/>
						
							<rect x="610.8" y="514.8" transform="matrix(-0.7071 -0.7071 0.7071 -0.7071 680.6768 1315.5054)" fill="#8F9294" width="4" height="4"/>
						
							<rect x="599" y="502.9" transform="matrix(-0.7071 -0.7071 0.7071 -0.7071 668.7565 1286.7285)" fill="#8F9294" width="3.8" height="3.8"/>
						
							<rect x="587.2" y="491.1" transform="matrix(-0.7071 -0.7071 0.7071 -0.7071 656.8364 1257.9515)" fill="#8F9294" width="3.6" height="3.6"/>
						
							<rect x="575.3" y="479.3" transform="matrix(-0.7071 -0.7071 0.7071 -0.7071 644.9158 1229.1748)" fill="#8F9294" width="3.4" height="3.4"/>
						
							<rect x="563.5" y="467.5" transform="matrix(-0.7071 -0.7071 0.7071 -0.7071 632.9954 1200.3978)" fill="#8F9294" width="3.2" height="3.2"/>
						
							<rect x="551.7" y="455.7" transform="matrix(-0.7071 -0.7071 0.7071 -0.7071 621.0747 1171.6211)" fill="#8F9294" width="3" height="3"/>
						
							<rect x="539.9" y="443.9" transform="matrix(-0.7071 -0.7071 0.7071 -0.7071 609.1538 1142.8441)" fill="#8F9294" width="2.7" height="2.7"/>
						
							<rect x="528.1" y="432.1" transform="matrix(-0.7071 -0.7071 0.7071 -0.7071 597.2521 1114.0656)" fill="#8F9294" width="2.5" height="2.5"/>
						
							<rect x="516.3" y="420.3" transform="matrix(-0.7071 -0.7071 0.7071 -0.7071 585.3119 1085.2906)" fill="#8F9294" width="2.3" height="2.3"/>
						
							<rect x="504.5" y="408.5" transform="matrix(-0.7071 -0.7071 0.7071 -0.7071 573.4098 1056.512)" fill="#8F9294" width="2.1" height="2.1"/>
						
							<rect x="492.7" y="396.6" transform="matrix(-0.7071 -0.7071 0.7071 -0.7071 561.4689 1027.7373)" fill="#8F9294" width="1.9" height="1.9"/>
					</g>
				</g>
				<g>
					<g>
						
							<rect x="612.9" y="536.2" transform="matrix(-0.7071 -0.7071 0.7071 -0.7071 669.3086 1353.9377)" fill="#8F9294" width="4.2" height="4.2"/>
						
							<rect x="601.1" y="524.4" transform="matrix(-0.7071 -0.7071 0.7071 -0.7071 657.3891 1325.1608)" fill="#8F9294" width="4" height="4"/>
						
							<rect x="589.3" y="512.6" transform="matrix(-0.7071 -0.7071 0.7071 -0.7071 645.4554 1296.3848)" fill="#8F9294" width="3.8" height="3.8"/>
						
							<rect x="577.5" y="500.8" transform="matrix(-0.7071 -0.7071 0.7071 -0.7071 633.5483 1267.6071)" fill="#8F9294" width="3.6" height="3.6"/>
						
							<rect x="565.7" y="489" transform="matrix(-0.7071 -0.7071 0.7071 -0.7071 621.6158 1238.8309)" fill="#8F9294" width="3.4" height="3.4"/>
						
							<rect x="553.9" y="477.2" transform="matrix(-0.7071 -0.7071 0.7071 -0.7071 609.7123 1210.0529)" fill="#8F9294" width="3.2" height="3.2"/>
						
							<rect x="542.1" y="465.4" transform="matrix(-0.7071 -0.7071 0.7071 -0.7071 597.7762 1181.277)" fill="#8F9294" width="3" height="3"/>
						
							<rect x="530.3" y="453.5" transform="matrix(-0.7071 -0.7071 0.7071 -0.7071 585.8743 1152.4988)" fill="#8F9294" width="2.7" height="2.7"/>
						
							<rect x="518.4" y="441.7" transform="matrix(-0.7071 -0.7071 0.7071 -0.7071 573.934 1123.7233)" fill="#8F9294" width="2.5" height="2.5"/>
						
							<rect x="506.6" y="429.9" transform="matrix(-0.7071 -0.7071 0.7071 -0.7071 562.0168 1094.9462)" fill="#8F9294" width="2.3" height="2.3"/>
						
							<rect x="494.8" y="418.1" transform="matrix(-0.7071 -0.7071 0.7071 -0.7071 550.097 1066.1692)" fill="#8F9294" width="2.1" height="2.1"/>
						
							<rect x="483" y="406.3" transform="matrix(-0.7071 -0.7071 0.7071 -0.7071 538.1563 1037.394)" fill="#8F9294" width="1.9" height="1.9"/>
					</g>
				</g>
				<g>
					<g>
						
							<rect x="603.3" y="545.9" transform="matrix(-0.7071 -0.7071 0.7071 -0.7071 645.9931 1363.5956)" fill="#8F9294" width="4.2" height="4.2"/>
						
							<rect x="591.5" y="534.1" transform="matrix(-0.7071 -0.7071 0.7071 -0.7071 634.0738 1334.8186)" fill="#8F9294" width="4" height="4"/>
						
							<rect x="579.7" y="522.3" transform="matrix(-0.7071 -0.7071 0.7071 -0.7071 622.1399 1306.0424)" fill="#8F9294" width="3.8" height="3.8"/>
						
							<rect x="567.8" y="510.5" transform="matrix(-0.7071 -0.7071 0.7071 -0.7071 610.235 1277.2646)" fill="#8F9294" width="3.6" height="3.6"/>
						
							<rect x="556" y="498.6" transform="matrix(-0.7071 -0.7071 0.7071 -0.7071 598.3003 1248.4885)" fill="#8F9294" width="3.4" height="3.4"/>
						
							<rect x="544.2" y="486.8" transform="matrix(-0.7071 -0.7071 0.7071 -0.7071 586.3992 1219.7106)" fill="#8F9294" width="3.2" height="3.2"/>
						
							<rect x="532.4" y="475" transform="matrix(-0.7071 -0.7071 0.7071 -0.7071 574.4583 1190.9348)" fill="#8F9294" width="3" height="3"/>
						
							<rect x="520.6" y="463.2" transform="matrix(-0.7071 -0.7071 0.7071 -0.7071 562.5588 1162.1566)" fill="#8F9294" width="2.7" height="2.7"/>
						
							<rect x="508.8" y="451.4" transform="matrix(-0.7071 -0.7071 0.7071 -0.7071 550.6211 1133.3807)" fill="#8F9294" width="2.5" height="2.5"/>
						
							<rect x="497" y="439.6" transform="matrix(-0.7071 -0.7071 0.7071 -0.7071 538.7242 1104.6023)" fill="#8F9294" width="2.3" height="2.3"/>
						
							<rect x="485.2" y="427.8" transform="matrix(-0.7071 -0.7071 0.7071 -0.7071 526.7815 1075.8268)" fill="#8F9294" width="2.1" height="2.1"/>
						
							<rect x="473.3" y="416" transform="matrix(-0.7071 -0.7071 0.7071 -0.7071 514.8828 1047.0486)" fill="#8F9294" width="1.9" height="1.9"/>
					</g>
				</g>
				<g>
					<g>
						
							<rect x="593.6" y="555.5" transform="matrix(-0.7071 -0.7071 0.7071 -0.7071 622.6642 1373.254)" fill="#8F9294" width="4.2" height="4.2"/>
						
							<rect x="581.8" y="543.7" transform="matrix(-0.7071 -0.7071 0.7071 -0.7071 610.7444 1344.4771)" fill="#8F9294" width="4" height="4"/>
						
							<rect x="570" y="531.9" transform="matrix(-0.7071 -0.7071 0.7071 -0.7071 598.8389 1315.6995)" fill="#8F9294" width="3.8" height="3.8"/>
						
							<rect x="558.2" y="520.1" transform="matrix(-0.7071 -0.7071 0.7071 -0.7071 586.9196 1286.9225)" fill="#8F9294" width="3.6" height="3.6"/>
						
							<rect x="546.4" y="508.3" transform="matrix(-0.7071 -0.7071 0.7071 -0.7071 574.9982 1258.1456)" fill="#8F9294" width="3.4" height="3.4"/>
						
							<rect x="534.6" y="496.5" transform="matrix(-0.7071 -0.7071 0.7071 -0.7071 563.0814 1229.3685)" fill="#8F9294" width="3.2" height="3.2"/>
						
							<rect x="522.7" y="484.7" transform="matrix(-0.7071 -0.7071 0.7071 -0.7071 551.1452 1200.5923)" fill="#8F9294" width="3" height="3"/>
						
							<rect x="510.9" y="472.9" transform="matrix(-0.7071 -0.7071 0.7071 -0.7071 539.2433 1171.8146)" fill="#8F9294" width="2.7" height="2.7"/>
						
							<rect x="499.1" y="461.1" transform="matrix(-0.7071 -0.7071 0.7071 -0.7071 527.3056 1143.0383)" fill="#8F9294" width="2.5" height="2.5"/>
						
							<rect x="487.3" y="449.2" transform="matrix(-0.7071 -0.7071 0.7071 -0.7071 515.4037 1114.2606)" fill="#8F9294" width="2.3" height="2.3"/>
						
							<rect x="475.5" y="437.4" transform="matrix(-0.7071 -0.7071 0.7071 -0.7071 503.466 1085.4845)" fill="#8F9294" width="2.1" height="2.1"/>
						
							<rect x="463.7" y="425.6" transform="matrix(-0.7071 -0.7071 0.7071 -0.7071 491.5701 1056.7065)" fill="#8F9294" width="1.9" height="1.9"/>
					</g>
				</g>
				<g>
					<g>
						
							<rect x="584" y="565.2" transform="matrix(-0.7071 -0.7071 0.7071 -0.7071 599.335 1382.9117)" fill="#8F9294" width="4.2" height="4.2"/>
						
							<rect x="572.1" y="553.4" transform="matrix(-0.7071 -0.7071 0.7071 -0.7071 587.4288 1354.1345)" fill="#8F9294" width="4" height="4"/>
						
							<rect x="560.3" y="541.6" transform="matrix(-0.7071 -0.7071 0.7071 -0.7071 575.4965 1325.3578)" fill="#8F9294" width="3.8" height="3.8"/>
						
							<rect x="548.5" y="529.8" transform="matrix(-0.7071 -0.7071 0.7071 -0.7071 563.5892 1296.5807)" fill="#8F9294" width="3.6" height="3.6"/>
						
							<rect x="536.7" y="518" transform="matrix(-0.7071 -0.7071 0.7071 -0.7071 551.6537 1267.8041)" fill="#8F9294" width="3.4" height="3.4"/>
						
							<rect x="524.9" y="506.1" transform="matrix(-0.7071 -0.7071 0.7071 -0.7071 539.7659 1239.0265)" fill="#8F9294" width="3.2" height="3.2"/>
						
							<rect x="513.1" y="494.3" transform="matrix(-0.7071 -0.7071 0.7071 -0.7071 527.8319 1210.2498)" fill="#8F9294" width="3" height="3"/>
						
							<rect x="501.3" y="482.5" transform="matrix(-0.7071 -0.7071 0.7071 -0.7071 515.9257 1181.4725)" fill="#8F9294" width="2.7" height="2.7"/>
						
							<rect x="489.5" y="470.7" transform="matrix(-0.7071 -0.7071 0.7071 -0.7071 503.9901 1152.6959)" fill="#8F9294" width="2.5" height="2.5"/>
						
							<rect x="477.7" y="458.9" transform="matrix(-0.7071 -0.7071 0.7071 -0.7071 492.0907 1123.9186)" fill="#8F9294" width="2.3" height="2.3"/>
						
							<rect x="465.8" y="447.1" transform="matrix(-0.7071 -0.7071 0.7071 -0.7071 480.1531 1095.142)" fill="#8F9294" width="2.1" height="2.1"/>
						
							<rect x="454" y="435.3" transform="matrix(-0.7071 -0.7071 0.7071 -0.7071 468.2546 1066.3646)" fill="#8F9294" width="1.9" height="1.9"/>
					</g>
				</g>
				<g>
					<g>
						
							<rect x="574.3" y="574.9" transform="matrix(-0.7071 -0.7071 0.7071 -0.7071 576.0195 1392.5691)" fill="#8F9294" width="4.2" height="4.2"/>
						
							<rect x="562.5" y="563" transform="matrix(-0.7071 -0.7071 0.7071 -0.7071 564.1133 1363.7921)" fill="#8F9294" width="4" height="4"/>
						
							<rect x="550.7" y="551.2" transform="matrix(-0.7071 -0.7071 0.7071 -0.7071 552.179 1335.0153)" fill="#8F9294" width="3.8" height="3.8"/>
						
							<rect x="538.9" y="539.4" transform="matrix(-0.7071 -0.7071 0.7071 -0.7071 540.2737 1306.2383)" fill="#8F9294" width="3.6" height="3.6"/>
						
							<rect x="527.1" y="527.6" transform="matrix(-0.7071 -0.7071 0.7071 -0.7071 528.3382 1277.4613)" fill="#8F9294" width="3.4" height="3.4"/>
						
							<rect x="515.2" y="515.8" transform="matrix(-0.7071 -0.7071 0.7071 -0.7071 516.4341 1248.6844)" fill="#8F9294" width="3.2" height="3.2"/>
						
							<rect x="503.4" y="504" transform="matrix(-0.7071 -0.7071 0.7071 -0.7071 504.4972 1219.9075)" fill="#8F9294" width="3" height="3"/>
						
							<rect x="491.6" y="492.2" transform="matrix(-0.7071 -0.7071 0.7071 -0.7071 492.5946 1191.1305)" fill="#8F9294" width="2.7" height="2.7"/>
						
							<rect x="479.8" y="480.4" transform="matrix(-0.7071 -0.7071 0.7071 -0.7071 480.6746 1162.3535)" fill="#8F9294" width="2.5" height="2.5"/>
						
							<rect x="468" y="468.6" transform="matrix(-0.7071 -0.7071 0.7071 -0.7071 468.7548 1133.5765)" fill="#8F9294" width="2.3" height="2.3"/>
						
							<rect x="456.2" y="456.7" transform="matrix(-0.7071 -0.7071 0.7071 -0.7071 456.8324 1104.7997)" fill="#8F9294" width="2.1" height="2.1"/>
						
							<rect x="444.4" y="444.9" transform="matrix(-0.7071 -0.7071 0.7071 -0.7071 444.8913 1076.0226)" fill="#8F9294" width="1.9" height="1.9"/>
					</g>
				</g>
				<g>
					<g>
						
							<rect x="564.6" y="584.5" transform="matrix(-0.7071 -0.7071 0.7071 -0.7071 552.704 1402.2264)" fill="#8F9294" width="4.2" height="4.2"/>
						
							<rect x="552.8" y="572.7" transform="matrix(-0.7071 -0.7071 0.7071 -0.7071 540.7838 1373.4495)" fill="#8F9294" width="4" height="4"/>
						
							<rect x="541" y="560.9" transform="matrix(-0.7071 -0.7071 0.7071 -0.7071 528.8635 1344.6726)" fill="#8F9294" width="3.8" height="3.8"/>
						
							<rect x="529.2" y="549.1" transform="matrix(-0.7071 -0.7071 0.7071 -0.7071 516.9433 1315.8955)" fill="#8F9294" width="3.6" height="3.6"/>
						
							<rect x="517.4" y="537.3" transform="matrix(-0.7071 -0.7071 0.7071 -0.7071 505.0227 1287.1187)" fill="#8F9294" width="3.4" height="3.4"/>
						
							<rect x="505.6" y="525.5" transform="matrix(-0.7071 -0.7071 0.7071 -0.7071 493.1023 1258.3416)" fill="#8F9294" width="3.2" height="3.2"/>
						
							<rect x="493.8" y="513.6" transform="matrix(-0.7071 -0.7071 0.7071 -0.7071 481.1817 1229.5647)" fill="#8F9294" width="3" height="3"/>
						
							<rect x="482" y="501.8" transform="matrix(-0.7071 -0.7071 0.7071 -0.7071 469.261 1200.7877)" fill="#8F9294" width="2.7" height="2.7"/>
						
							<rect x="470.2" y="490" transform="matrix(-0.7071 -0.7071 0.7071 -0.7071 457.3401 1172.0107)" fill="#8F9294" width="2.5" height="2.5"/>
						
							<rect x="458.3" y="478.2" transform="matrix(-0.7071 -0.7071 0.7071 -0.7071 445.4191 1143.2338)" fill="#8F9294" width="2.3" height="2.3"/>
						
							<rect x="446.5" y="466.4" transform="matrix(-0.7071 -0.7071 0.7071 -0.7071 433.4978 1114.4568)" fill="#8F9294" width="2.1" height="2.1"/>
						
							<rect x="434.7" y="454.6" transform="matrix(-0.7071 -0.7071 0.7071 -0.7071 421.5785 1085.6798)" fill="#8F9294" width="1.9" height="1.9"/>
					</g>
				</g>
				<g>
					<g>
						
							<rect x="555" y="594.2" transform="matrix(-0.7071 -0.7071 0.7071 -0.7071 529.4292 1411.8853)" fill="#8F9294" width="4.2" height="4.2"/>
						
							<rect x="543.2" y="582.4" transform="matrix(-0.7071 -0.7071 0.7071 -0.7071 517.4963 1383.1079)" fill="#8F9294" width="4" height="4"/>
						
							<rect x="531.4" y="570.6" transform="matrix(-0.7071 -0.7071 0.7071 -0.7071 505.577 1354.3309)" fill="#8F9294" width="3.8" height="3.8"/>
						
							<rect x="519.6" y="558.7" transform="matrix(-0.7071 -0.7071 0.7071 -0.7071 493.6575 1325.5541)" fill="#8F9294" width="3.6" height="3.6"/>
						
							<rect x="507.7" y="546.9" transform="matrix(-0.7071 -0.7071 0.7071 -0.7071 481.7228 1296.7765)" fill="#8F9294" width="3.4" height="3.4"/>
						
							<rect x="495.9" y="535.1" transform="matrix(-0.7071 -0.7071 0.7071 -0.7071 469.8213 1268.0004)" fill="#8F9294" width="3.2" height="3.2"/>
						
							<rect x="484.1" y="523.3" transform="matrix(-0.7071 -0.7071 0.7071 -0.7071 457.8811 1239.2225)" fill="#8F9294" width="3" height="3"/>
						
							<rect x="472.3" y="511.5" transform="matrix(-0.7071 -0.7071 0.7071 -0.7071 445.9813 1210.4464)" fill="#8F9294" width="2.7" height="2.7"/>
						
							<rect x="460.5" y="499.7" transform="matrix(-0.7071 -0.7071 0.7071 -0.7071 434.0435 1181.6687)" fill="#8F9294" width="2.5" height="2.5"/>
						
							<rect x="448.7" y="487.9" transform="matrix(-0.7071 -0.7071 0.7071 -0.7071 422.1261 1152.8918)" fill="#8F9294" width="2.3" height="2.3"/>
						
							<rect x="436.9" y="476.1" transform="matrix(-0.7071 -0.7071 0.7071 -0.7071 410.2039 1124.1149)" fill="#8F9294" width="2.1" height="2.1"/>
						
							<rect x="425.1" y="464.2" transform="matrix(-0.7071 -0.7071 0.7071 -0.7071 398.2816 1095.3378)" fill="#8F9294" width="1.9" height="1.9"/>
					</g>
				</g>
				<g>
					<g>
						
							<rect x="545.3" y="603.8" transform="matrix(-0.7071 -0.7071 0.7071 -0.7071 506.0866 1421.5419)" fill="#8F9294" width="4.2" height="4.2"/>
						
							<rect x="533.5" y="592" transform="matrix(-0.7071 -0.7071 0.7071 -0.7071 494.1668 1392.765)" fill="#8F9294" width="4" height="4"/>
						
							<rect x="521.7" y="580.2" transform="matrix(-0.7071 -0.7071 0.7071 -0.7071 482.247 1363.988)" fill="#8F9294" width="3.8" height="3.8"/>
						
							<rect x="509.9" y="568.4" transform="matrix(-0.7071 -0.7071 0.7071 -0.7071 470.342 1335.2119)" fill="#8F9294" width="3.6" height="3.6"/>
						
							<rect x="498.1" y="556.6" transform="matrix(-0.7071 -0.7071 0.7071 -0.7071 458.421 1306.4348)" fill="#8F9294" width="3.4" height="3.4"/>
						
							<rect x="486.3" y="544.8" transform="matrix(-0.7071 -0.7071 0.7071 -0.7071 446.5038 1277.6582)" fill="#8F9294" width="3.2" height="3.2"/>
						
							<rect x="474.5" y="533" transform="matrix(-0.7071 -0.7071 0.7071 -0.7071 434.5677 1248.8801)" fill="#8F9294" width="3" height="3"/>
						
							<rect x="462.6" y="521.2" transform="matrix(-0.7071 -0.7071 0.7071 -0.7071 422.6658 1220.1044)" fill="#8F9294" width="2.7" height="2.7"/>
						
							<rect x="450.8" y="509.3" transform="matrix(-0.7071 -0.7071 0.7071 -0.7071 410.7281 1191.3263)" fill="#8F9294" width="2.5" height="2.5"/>
						
							<rect x="439" y="497.5" transform="matrix(-0.7071 -0.7071 0.7071 -0.7071 398.8263 1162.5505)" fill="#8F9294" width="2.3" height="2.3"/>
						
							<rect x="427.2" y="485.7" transform="matrix(-0.7071 -0.7071 0.7071 -0.7071 386.8885 1133.7725)" fill="#8F9294" width="2.1" height="2.1"/>
						
							<rect x="415.4" y="473.9" transform="matrix(-0.7071 -0.7071 0.7071 -0.7071 374.9926 1104.9971)" fill="#8F9294" width="1.9" height="1.9"/>
					</g>
				</g>
				<g>
					<g>
						
							<rect x="535.7" y="613.5" transform="matrix(-0.7071 -0.7071 0.7071 -0.7071 482.7711 1431.1996)" fill="#8F9294" width="4.2" height="4.2"/>
						
							<rect x="523.9" y="601.7" transform="matrix(-0.7071 -0.7071 0.7071 -0.7071 470.8513 1402.4226)" fill="#8F9294" width="4" height="4"/>
						
							<rect x="512" y="589.9" transform="matrix(-0.7071 -0.7071 0.7071 -0.7071 458.9315 1373.6458)" fill="#8F9294" width="3.8" height="3.8"/>
						
							<rect x="500.2" y="578.1" transform="matrix(-0.7071 -0.7071 0.7071 -0.7071 447.0117 1344.8688)" fill="#8F9294" width="3.6" height="3.6"/>
						
							<rect x="488.4" y="566.2" transform="matrix(-0.7071 -0.7071 0.7071 -0.7071 435.0919 1316.0918)" fill="#8F9294" width="3.4" height="3.4"/>
						
							<rect x="476.6" y="554.4" transform="matrix(-0.7071 -0.7071 0.7071 -0.7071 423.1721 1287.3148)" fill="#8F9294" width="3.2" height="3.2"/>
						
							<rect x="464.8" y="542.6" transform="matrix(-0.7071 -0.7071 0.7071 -0.7071 411.2692 1258.5392)" fill="#8F9294" width="3" height="3"/>
						
							<rect x="453" y="530.8" transform="matrix(-0.7071 -0.7071 0.7071 -0.7071 399.3483 1229.7622)" fill="#8F9294" width="2.7" height="2.7"/>
						
							<rect x="441.2" y="519" transform="matrix(-0.7071 -0.7071 0.7071 -0.7071 387.4317 1200.9855)" fill="#8F9294" width="2.5" height="2.5"/>
						
							<rect x="429.4" y="507.2" transform="matrix(-0.7071 -0.7071 0.7071 -0.7071 375.5132 1172.2087)" fill="#8F9294" width="2.3" height="2.3"/>
						
							<rect x="417.6" y="495.4" transform="matrix(-0.7071 -0.7071 0.7071 -0.7071 363.5753 1143.4303)" fill="#8F9294" width="2.1" height="2.1"/>
						
							<rect x="405.7" y="483.6" transform="matrix(-0.7071 -0.7071 0.7071 -0.7071 351.6771 1114.6552)" fill="#8F9294" width="1.9" height="1.9"/>
					</g>
				</g>
			</g>
			<path fill="#FDFDFD" d="M750.5,275.5c-14.3,0-25.9,11.6-25.9,25.9c0,14.3,11.6,25.9,25.9,25.9c14.3,0,25.9-11.6,25.9-25.9
				C776.4,287,764.8,275.5,750.5,275.5z M750.5,313.4c-6.7,0-12.1-5.4-12.1-12.1c0-6.7,5.4-12.1,12.1-12.1c6.7,0,12.1,5.4,12.1,12.1
				C762.6,308,757.2,313.4,750.5,313.4z"/>
			<g>
				<defs>
					<circle id="SVGID_3_" cx="524.8" cy="194.1" r="55.1"/>
				</defs>
				<clipPath id="SVGID_4_">
					<use xlink:href="#SVGID_3_"  overflow="visible"/>
				</clipPath>
				<path clip-path="url(#SVGID_4_)" fill="none" stroke="#606060" stroke-width="0.6545" stroke-miterlimit="10" d="M510.7,136.4
					c-15.2,16.2-31.6,31.2-46.8,47.5"/>
				<path clip-path="url(#SVGID_4_)" fill="none" stroke="#606060" stroke-width="0.6545" stroke-miterlimit="10" d="M517.6,136.4
					c-17,18.2-36,35.9-53.9,53.8"/>
				<path clip-path="url(#SVGID_4_)" fill="none" stroke="#606060" stroke-width="0.6545" stroke-miterlimit="10" d="M524.1,136.4
					c-20.1,20.1-40.4,40.4-60.4,60.4"/>
				<path clip-path="url(#SVGID_4_)" fill="none" stroke="#606060" stroke-width="0.6545" stroke-miterlimit="10" d="M530.5,136.6
					c-22,22-44.2,44.2-66.8,66.8"/>
				<path clip-path="url(#SVGID_4_)" fill="none" stroke="#606060" stroke-width="0.6545" stroke-miterlimit="10" d="M538.3,136.5
					c-24.6,24-49.4,48.2-74.5,73.1"/>
				<path clip-path="url(#SVGID_4_)" fill="none" stroke="#606060" stroke-width="0.6545" stroke-miterlimit="10" d="M543.4,136.6
					c-25.8,26.5-51.3,51.4-77.5,78.2c-0.7,0.7-2,0.7-2.3,1.6"/>
				<path clip-path="url(#SVGID_4_)" fill="none" stroke="#606060" stroke-width="0.6545" stroke-miterlimit="10" d="M550.5,136.5
					c-15.9,16.8-32.9,31.9-49.9,48.9c-12.4,13.1-24.9,24.2-36.8,37.3"/>
				<path clip-path="url(#SVGID_4_)" fill="none" stroke="#606060" stroke-width="0.6545" stroke-miterlimit="10" d="M555,137.8
					c-30.1,30.6-61.5,60-91.2,91.4"/>
				<path clip-path="url(#SVGID_4_)" fill="none" stroke="#606060" stroke-width="0.6545" stroke-miterlimit="10" d="M554.9,144.2
					c-30,30-60.8,60.7-91,91.1"/>
				<path clip-path="url(#SVGID_4_)" fill="none" stroke="#606060" stroke-width="0.6545" stroke-miterlimit="10" d="M558.2,147.8
					c-31.4,31.7-63.4,62.5-94.3,94.2"/>
				<path clip-path="url(#SVGID_4_)" fill="none" stroke="#606060" stroke-width="0.6545" stroke-miterlimit="10" d="M564.7,147.7
					c-34,33.7-66.7,68.4-101.1,101"/>
				<path clip-path="url(#SVGID_4_)" fill="none" stroke="#606060" stroke-width="0.6545" stroke-miterlimit="10" d="M570.8,148
					C536,182.7,502,216.8,467.2,251.5"/>
				<path clip-path="url(#SVGID_4_)" fill="none" stroke="#606060" stroke-width="0.6545" stroke-miterlimit="10" d="M577.1,148
					c-34.6,34.1-68.6,68.8-103.5,103.6"/>
				<path clip-path="url(#SVGID_4_)" fill="none" stroke="#606060" stroke-width="0.6545" stroke-miterlimit="10" d="M580.5,150.9
					c-33.4,33.1-66.1,67.2-100.5,100.7"/>
				<path clip-path="url(#SVGID_4_)" fill="none" stroke="#606060" stroke-width="0.6545" stroke-miterlimit="10" d="M580.7,157.1
					c-31.6,31.5-61.8,64.3-94.2,94.5"/>
				<path clip-path="url(#SVGID_4_)" fill="none" stroke="#606060" stroke-width="0.6545" stroke-miterlimit="10" d="M580.5,164.2
					c-29.4,29-58.2,58.5-87.5,87.4"/>
				<path clip-path="url(#SVGID_4_)" fill="none" stroke="#606060" stroke-width="0.6545" stroke-miterlimit="10" d="M580.7,170.2
					c-27,27-53.9,54.5-81.1,81.4"/>
				<path clip-path="url(#SVGID_4_)" fill="none" stroke="#606060" stroke-width="0.6545" stroke-miterlimit="10" d="M580.6,176.8
					c-25,24.9-49.9,49.8-74.7,74.8"/>
				<path clip-path="url(#SVGID_4_)" fill="none" stroke="#606060" stroke-width="0.6545" stroke-miterlimit="10" d="M580.7,183.2
					c-22.4,23.1-45.3,46-68.2,68.3"/>
				<path clip-path="url(#SVGID_4_)" fill="none" stroke="#606060" stroke-width="0.6545" stroke-miterlimit="10" d="M580.6,189.8
					c-20.4,20.4-41.3,41.3-61.7,61.7"/>
				<path clip-path="url(#SVGID_4_)" fill="none" stroke="#606060" stroke-width="0.6545" stroke-miterlimit="10" d="M580.4,196.5
					c-18.3,18.3-36.6,36.6-55.1,55"/>
				<path clip-path="url(#SVGID_4_)" fill="none" stroke="#606060" stroke-width="0.6545" stroke-miterlimit="10" d="M580.6,202.6
					c-12.7,12.7-25.4,25.3-38,38.1c-3.6,3.6-7.2,7.3-10.8,10.9"/>
				<path clip-path="url(#SVGID_4_)" fill="none" stroke="#606060" stroke-width="0.6545" stroke-miterlimit="10" d="M580.6,209.9
					c-13.8,14.1-28.2,28.5-42.3,41.8"/>
			</g>
			<circle fill="none" stroke="#606060" stroke-width="0.6545" stroke-miterlimit="10" cx="589.8" cy="236.3" r="5.4"/>
			<circle fill="none" stroke="#8F9294" stroke-miterlimit="10" cx="129.6" cy="385.9" r="5.4"/>
		</g>
	</g>
	<rect y="500" fill="#0F1027" width="750" height="20.5"/>
</g>
</svg>
